<?xml version="1.0" encoding="UTF-8" standalone="no"?>
<!DOCTYPE svg PUBLIC "-//W3C//DTD SVG 1.1//EN"
 "http://www.w3.org/Graphics/SVG/1.1/DTD/svg11.dtd">
<!-- Generated by graphviz version 2.38.0 (20140413.2041)
 -->
<!-- Title: G Pages: 1 -->
<svg width="151pt" height="204pt"
 viewBox="0.00 0.00 151.00 204.00" xmlns="http://www.w3.org/2000/svg" xmlns:xlink="http://www.w3.org/1999/xlink">
<g id="graph0" class="graph" transform="scale(1 1) rotate(0) translate(4 200)">
<title>G</title>
<polygon fill="white" stroke="none" points="-4,4 -4,-200 147,-200 147,4 -4,4"/>
<g id="clust1" class="cluster"><title>cluster_Global</title>
<path fill="none" stroke="gray" d="M20,-8C20,-8 123,-8 123,-8 129,-8 135,-14 135,-20 135,-20 135,-176 135,-176 135,-182 129,-188 123,-188 123,-188 20,-188 20,-188 14,-188 8,-182 8,-176 8,-176 8,-20 8,-20 8,-14 14,-8 20,-8"/>
<text text-anchor="middle" x="71.5" y="-175.2" font-family="Times,serif" font-size="11.00" fill="gray">Global</text>
</g>
<!-- \\nameInterface -->
<g id="node1" class="node"><title>\\nameInterface</title>
<polygon fill="none" stroke="black" points="123.5,-160 19.5,-160 19.5,-124 123.5,-124 123.5,-160"/>
<text text-anchor="middle" x="71.5" y="-139.2" font-family="Courier,monospace" font-size="11.00">nameInterface</text>
</g>
<!-- \\emailInterface -->
<g id="node2" class="node"><title>\\emailInterface</title>
<polygon fill="none" stroke="black" points="127,-106 16,-106 16,-70 127,-70 127,-106"/>
<text text-anchor="middle" x="71.5" y="-85.2" font-family="Courier,monospace" font-size="11.00">emailInterface</text>
</g>
<!-- \\phone -->
<g id="node3" class="node"><title>\\phone</title>
<polygon fill="none" stroke="black" points="98.5,-52 44.5,-52 44.5,-16 98.5,-16 98.5,-52"/>
<text text-anchor="middle" x="71.5" y="-31.2" font-family="Courier,monospace" font-size="11.00">phone</text>
</g>
</g>
</svg>
